<svg version="1.1" id="Layer_1" xmlns="http://www.w3.org/2000/svg" xmlns:xlink="http://www.w3.org/1999/xlink" x="0px" y="0px"
	 width="100%" viewBox="0 0 600 600" enable-background="new 0 0 600 600" xml:space="preserve">
<path fill="#FEFEFE" opacity="1.000000" stroke="none" 
	d="
M601.000000,222.000000 
	C601.000000,348.666656 601.000000,474.833344 601.000000,601.000000 
	C401.000000,601.000000 201.000000,601.000000 1.000000,601.000000 
	C1.000000,401.000000 1.000000,201.000000 1.000000,1.000000 
	C201.000000,1.000000 401.000000,1.000000 601.000000,1.000000 
	C601.000000,74.500000 601.000000,148.000000 601.000000,222.000000 
M400.519928,50.002773 
	C349.948059,30.330620 298.125946,26.010721 244.938354,36.903625 
	C99.075760,66.776505 3.966832,214.854553 37.495651,360.056915 
	C70.971817,505.031250 210.751190,594.834839 356.698425,565.134155 
	C502.924591,535.376587 598.682129,387.021423 564.320496,241.875061 
	C542.718872,150.627823 487.340179,87.121887 400.519928,50.002773 
z"/>
<path fill="#030303" opacity="1.000000" stroke="none" 
	d="
M400.882263,50.130592 
	C487.340179,87.121887 542.718872,150.627823 564.320496,241.875061 
	C598.682129,387.021423 502.924591,535.376587 356.698425,565.134155 
	C210.751190,594.834839 70.971817,505.031250 37.495651,360.056915 
	C3.966832,214.854553 99.075760,66.776505 244.938354,36.903625 
	C298.125946,26.010721 349.948059,30.330620 400.882263,50.130592 
M228.680878,336.155151 
	C244.897125,369.651550 280.772217,387.769958 317.473358,379.803741 
	C348.490723,373.071198 369.444275,353.907196 378.269958,323.413879 
	C386.778992,294.014526 380.177338,267.499359 358.559174,244.523483 
	C317.321655,201.930038 244.655289,217.882156 224.992065,273.996948 
	C217.689529,294.836914 218.311935,315.499207 228.680878,336.155151 
M462.848633,111.373528 
	C409.222870,66.455467 347.412109,46.303219 277.870270,52.995979 
	C197.930573,60.689438 135.783722,99.341209 91.394356,166.057205 
	C68.835724,199.962234 56.353390,237.677002 52.639137,278.269318 
	C52.383667,281.061279 52.274868,283.101959 56.924908,282.195282 
	C99.525459,282.195282 142.126022,282.195282 184.634048,282.195282 
	C194.994324,224.586609 241.446838,188.009705 290.346710,183.889969 
	C316.423767,181.693024 340.748291,187.141754 362.912048,201.041077 
	C393.029175,219.928101 410.777466,247.402542 417.304565,281.848358 
	C461.691864,281.848358 505.556854,281.848358 549.586731,281.848358 
	C548.276062,263.775116 545.081482,246.456085 539.939209,229.517242 
	C526.726868,185.996185 503.578064,148.703476 469.732422,117.455635 
	C467.825348,115.964806 465.918243,114.473969 463.792511,112.529251 
	C463.502777,112.369850 463.213074,112.210449 462.848633,111.373528 
M220.715576,387.334686 
	C203.283356,370.589172 191.865326,350.389587 186.113068,326.125153 
	C186.008545,322.647217 184.440231,321.466339 180.778564,321.478851 
	C139.529755,321.619476 98.280289,321.564453 57.031006,321.582397 
	C55.613995,321.583008 54.197071,321.797180 52.164173,321.961639 
	C53.517570,331.063263 54.108044,339.770477 56.208595,348.096741 
	C59.726658,362.041779 64.207787,375.743835 68.406685,390.275269 
	C106.632378,482.135773 174.915726,537.189148 273.614136,548.148682 
	C372.342072,559.111328 451.305908,520.369141 508.435516,439.044952 
	C531.910767,405.627838 544.837524,367.800690 549.126892,326.207367 
	C549.126892,324.762360 549.126892,323.317352 549.126892,321.819000 
	C548.145935,321.676147 547.495605,321.498749 546.845276,321.498535 
	C504.723785,321.485565 462.602203,321.530426 420.481079,321.407349 
	C416.986206,321.397125 416.512329,323.125092 415.930878,325.825195 
	C398.181519,408.248962 301.320557,445.672516 232.646667,396.692200 
	C231.195450,395.657135 229.593262,394.833771 227.760223,393.407898 
	C227.119980,392.971680 226.479752,392.535431 225.765076,391.440887 
	C224.203461,390.256012 222.641846,389.071136 220.715576,387.334686 
z"/>
<path fill="#FDFDFE" opacity="1.000000" stroke="none" 
	d="
M186.048615,326.973053 
	C191.865326,350.389587 203.283356,370.589172 220.872070,387.963257 
	C222.632217,389.760925 224.235870,390.930054 225.839523,392.099182 
	C226.479752,392.535431 227.119980,392.971680 227.839111,394.012085 
	C228.505997,395.398163 228.960480,396.347717 229.701355,396.937622 
	C255.817169,417.734497 285.553925,426.721100 318.670441,422.678436 
	C369.701080,416.448914 409.127533,378.280212 419.036896,331.442566 
	C419.778381,327.937927 421.228546,326.673309 425.010010,326.691406 
	C459.473938,326.856293 493.938965,326.773682 528.403687,326.800354 
	C535.224731,326.805634 542.045715,326.969238 548.866699,327.059814 
	C544.837524,367.800690 531.910767,405.627838 508.435516,439.044952 
	C451.305908,520.369141 372.342072,559.111328 273.614136,548.148682 
	C174.915726,537.189148 106.632378,482.135773 68.546295,389.548889 
	C62.667477,368.696625 57.130955,348.477325 56.032722,326.794159 
	C64.878319,326.794159 73.008705,326.783203 81.139069,326.796021 
	C116.108925,326.851227 151.078766,326.913422 186.048615,326.973053 
M404.248627,445.790680 
	C388.560822,449.027069 372.873016,452.263489 357.185211,455.499878 
	C357.205872,455.880615 357.226532,456.261383 357.247192,456.642120 
	C381.326111,461.842621 405.405060,467.043121 429.483978,472.243622 
	C429.499329,472.572357 429.514648,472.901093 429.529999,473.229828 
	C392.970581,480.048492 356.411163,486.867188 319.851746,493.685852 
	C319.909302,493.987518 319.966858,494.289154 320.024414,494.590790 
	C338.230103,498.347992 356.435791,502.105194 374.641449,505.862396 
	C374.603973,506.204498 374.566498,506.546600 374.529022,506.888702 
	C338.166626,514.954895 301.804199,523.021118 265.441772,531.087341 
	C320.310364,541.633362 397.440460,529.608276 458.024536,474.244293 
	C499.304291,436.521332 524.235901,390.043152 532.504944,333.823914 
	C501.388336,340.191406 471.481903,346.311249 441.575470,352.431122 
	C441.566040,352.781311 441.556610,353.131500 441.547180,353.481689 
	C461.515564,357.398041 481.483948,361.314392 501.452332,365.230774 
	C501.490601,365.525726 501.528870,365.820679 501.567139,366.115631 
	C476.308258,371.458984 451.049377,376.802338 425.790497,382.145660 
	C425.791901,382.429413 425.793335,382.713135 425.794739,382.996857 
	C447.027679,387.022278 468.260620,391.047699 489.493591,395.073151 
	C489.477936,395.372803 489.462280,395.672485 489.446594,395.972137 
	C458.353638,402.359711 427.260681,408.747284 396.167725,415.134857 
	C396.136353,415.489990 396.105011,415.845123 396.073669,416.200256 
	C419.838745,421.377899 443.603821,426.555542 467.368896,431.733185 
	C467.303345,432.070007 467.237762,432.406860 467.172211,432.743713 
	C446.471558,437.031372 425.770874,441.319061 404.248627,445.790680 
z"/>
<path fill="#FEFBFB" opacity="1.000000" stroke="none" 
	d="
M469.796356,118.120148 
	C503.578064,148.703476 526.726868,185.996185 539.939209,229.517242 
	C545.081482,246.456085 548.276062,263.775116 549.586731,281.848358 
	C505.556854,281.848358 461.691864,281.848358 417.304565,281.848358 
	C410.777466,247.402542 393.029175,219.928101 362.912048,201.041077 
	C340.748291,187.141754 316.423767,181.693024 290.346710,183.889969 
	C241.446838,188.009705 194.994324,224.586609 184.634048,282.195282 
	C142.126022,282.195282 99.525459,282.195282 56.487606,281.669220 
	C56.308899,279.504883 56.627941,277.873566 56.817158,276.227295 
	C60.627705,243.074249 70.863953,212.030655 87.354164,183.032150 
	C110.633751,142.094315 142.900314,110.133644 184.117233,87.494324 
	C234.090927,60.045155 287.498749,51.123623 343.780212,59.878483 
	C385.191345,66.320183 422.526245,82.470718 455.814270,107.976051 
	C457.963165,109.622536 460.543640,110.705795 462.923340,112.051056 
	C463.213074,112.210449 463.502777,112.369850 463.849915,113.107178 
	C465.870300,115.163452 467.833313,116.641808 469.796356,118.120148 
M234.852722,122.895805 
	C203.656754,129.473648 172.460785,136.051483 141.264816,142.629333 
	C141.330139,143.002808 141.395462,143.376266 141.460800,143.749741 
	C162.077301,147.845901 182.693787,151.942062 203.310287,156.038239 
	C203.295670,156.334610 203.281036,156.630966 203.266418,156.927338 
	C173.280212,163.376068 143.294022,169.824799 113.307816,176.273529 
	C113.291466,176.639313 113.275116,177.005096 113.258766,177.370880 
	C134.596909,182.021103 155.935043,186.671326 177.273178,191.321548 
	C177.252304,191.661484 177.231445,192.001419 177.210571,192.341354 
	C149.868835,197.909286 122.527100,203.477203 95.185364,209.045135 
	C95.184723,209.355881 95.184082,209.666611 95.183449,209.977356 
	C115.716202,214.035782 136.248962,218.094208 156.781708,222.152634 
	C156.814026,222.466415 156.846344,222.780212 156.878662,223.094009 
	C131.583435,228.848114 106.288208,234.602203 80.992973,240.356308 
	C80.990120,240.799026 80.987267,241.241745 80.984413,241.684464 
	C100.140503,245.669373 119.296593,249.654266 138.452682,253.639175 
	C138.408112,253.961884 138.363556,254.284607 138.319000,254.607315 
	C117.220016,258.362457 96.121033,262.117615 75.022057,265.872772 
	C106.349487,266.847076 137.511398,266.780945 168.672180,266.940552 
	C172.113281,266.958160 172.708008,265.256592 173.506088,262.672272 
	C191.165146,205.489197 241.760559,167.933350 301.023834,167.940186 
	C360.279755,167.947021 410.828094,205.452911 428.474823,262.715302 
	C429.533936,266.151978 431.036835,266.936005 434.380188,266.922241 
	C465.377319,266.794495 496.375153,266.849426 527.372803,266.838318 
	C528.841370,266.837769 530.309998,266.714386 532.607361,266.610901 
	C520.218506,195.280792 484.336639,140.078094 423.318176,101.764122 
	C357.547852,60.466415 280.256500,60.860493 232.297363,78.155937 
	C246.392532,81.754364 260.343384,85.315948 274.294220,88.877533 
	C274.241119,89.286446 274.188019,89.695366 274.134918,90.104286 
	C242.545242,96.425987 210.955551,102.747688 179.365860,109.069397 
	C180.826782,110.176491 182.240295,110.634659 183.686401,110.936676 
	C199.660721,114.272873 215.644257,117.565147 231.610657,120.938591 
	C232.971252,121.226067 234.226822,122.010773 234.852722,122.895805 
z"/>
<path fill="#FDFDFD" opacity="1.000000" stroke="none" 
	d="
M358.654022,245.176559 
	C380.177338,267.499359 386.778992,294.014526 378.269958,323.413879 
	C369.444275,353.907196 348.490723,373.071198 317.473358,379.803741 
	C280.772217,387.769958 244.897125,369.651550 228.692749,335.444977 
	C224.134567,321.142578 222.303528,307.281311 224.813370,293.042114 
	C230.020081,263.502594 246.553024,242.400192 274.133575,231.301239 
	C302.855865,219.742813 330.132568,224.163040 354.847290,243.128983 
	C355.975525,243.994781 357.378845,244.502197 358.654022,245.176559 
M326.850433,260.562317 
	C325.553131,259.812073 324.285187,259.004730 322.954071,258.320221 
	C305.406525,249.296478 283.939453,251.975388 269.278534,265.000214 
	C254.121918,278.465424 248.982468,299.495453 256.240204,318.351562 
	C263.295044,336.680542 281.138672,348.930389 300.840515,348.970154 
	C321.725922,349.012299 340.208435,335.657898 346.677826,315.850677 
	C353.355652,295.405273 345.873077,274.035645 326.850433,260.562317 
z"/>
<path fill="#AEAEAE" opacity="1.000000" stroke="none" 
	d="
M462.885986,111.712288 
	C460.543640,110.705795 457.963165,109.622536 455.814270,107.976051 
	C422.526245,82.470718 385.191345,66.320183 343.780212,59.878483 
	C287.498749,51.123623 234.090927,60.045155 184.117233,87.494324 
	C142.900314,110.133644 110.633751,142.094315 87.354164,183.032150 
	C70.863953,212.030655 60.627705,243.074249 56.817158,276.227295 
	C56.627941,277.873566 56.308899,279.504883 56.030277,281.561981 
	C52.274868,283.101959 52.383667,281.061279 52.639137,278.269318 
	C56.353390,237.677002 68.835724,199.962234 91.394356,166.057205 
	C135.783722,99.341209 197.930573,60.689438 277.870270,52.995979 
	C347.412109,46.303219 409.222870,66.455467 462.885986,111.712288 
z"/>
<path fill="#AFAFAF" opacity="1.000000" stroke="none" 
	d="
M548.996826,326.633606 
	C542.045715,326.969238 535.224731,326.805634 528.403687,326.800354 
	C493.938965,326.773682 459.473938,326.856293 425.010010,326.691406 
	C421.228546,326.673309 419.778381,327.937927 419.036896,331.442566 
	C409.127533,378.280212 369.701080,416.448914 318.670441,422.678436 
	C285.553925,426.721100 255.817169,417.734497 229.701355,396.937622 
	C228.960480,396.347717 228.505997,395.398163 227.989746,394.263977 
	C229.593262,394.833771 231.195450,395.657135 232.646667,396.692200 
	C301.320557,445.672516 398.181519,408.248962 415.930878,325.825195 
	C416.512329,323.125092 416.986206,321.397125 420.481079,321.407349 
	C462.602203,321.530426 504.723785,321.485565 546.845276,321.498535 
	C547.495605,321.498749 548.145935,321.676147 549.126892,321.819000 
	C549.126892,323.317352 549.126892,324.762360 548.996826,326.633606 
z"/>
<path fill="#ACACAD" opacity="1.000000" stroke="none" 
	d="
M358.606598,244.850021 
	C357.378845,244.502197 355.975525,243.994781 354.847290,243.128983 
	C330.132568,224.163040 302.855865,219.742813 274.133575,231.301239 
	C246.553024,242.400192 230.020081,263.502594 224.813370,293.042114 
	C222.303528,307.281311 224.134567,321.142578 228.563156,335.117249 
	C218.311935,315.499207 217.689529,294.836914 224.992065,273.996948 
	C244.655289,217.882156 317.321655,201.930038 358.606598,244.850021 
z"/>
<path fill="#B0B0B0" opacity="1.000000" stroke="none" 
	d="
M186.080841,326.549103 
	C151.078766,326.913422 116.108925,326.851227 81.139069,326.796021 
	C73.008705,326.783203 64.878319,326.794159 56.032722,326.794159 
	C57.130955,348.477325 62.667477,368.696625 68.484756,389.185364 
	C64.207787,375.743835 59.726658,362.041779 56.208595,348.096741 
	C54.108044,339.770477 53.517570,331.063263 52.164173,321.961639 
	C54.197071,321.797180 55.613995,321.583008 57.031006,321.582397 
	C98.280289,321.564453 139.529755,321.619476 180.778564,321.478851 
	C184.440231,321.466339 186.008545,322.647217 186.080841,326.549103 
z"/>
<path fill="#AEAEAE" opacity="1.000000" stroke="none" 
	d="
M469.764404,117.787895 
	C467.833313,116.641808 465.870300,115.163452 463.959229,113.334122 
	C465.918243,114.473969 467.825348,115.964806 469.764404,117.787895 
z"/>
<path fill="#AFAFAF" opacity="1.000000" stroke="none" 
	d="
M225.802307,391.770020 
	C224.235870,390.930054 222.632217,389.760925 221.054413,388.239014 
	C222.641846,389.071136 224.203461,390.256012 225.802307,391.770020 
z"/>
<path fill="#58585C" opacity="1.000000" stroke="none" 
	d="
M404.659424,445.698700 
	C425.770874,441.319061 446.471558,437.031372 467.172211,432.743713 
	C467.237762,432.406860 467.303345,432.070007 467.368896,431.733185 
	C443.603821,426.555542 419.838745,421.377899 396.073669,416.200256 
	C396.105011,415.845123 396.136353,415.489990 396.167725,415.134857 
	C427.260681,408.747284 458.353638,402.359711 489.446594,395.972137 
	C489.462280,395.672485 489.477936,395.372803 489.493591,395.073151 
	C468.260620,391.047699 447.027679,387.022278 425.794739,382.996857 
	C425.793335,382.713135 425.791901,382.429413 425.790497,382.145660 
	C451.049377,376.802338 476.308258,371.458984 501.567139,366.115631 
	C501.528870,365.820679 501.490601,365.525726 501.452332,365.230774 
	C481.483948,361.314392 461.515564,357.398041 441.547180,353.481689 
	C441.556610,353.131500 441.566040,352.781311 441.575470,352.431122 
	C471.481903,346.311249 501.388336,340.191406 532.504944,333.823914 
	C524.235901,390.043152 499.304291,436.521332 458.024536,474.244293 
	C397.440460,529.608276 320.310364,541.633362 265.441772,531.087341 
	C301.804199,523.021118 338.166626,514.954895 374.529022,506.888702 
	C374.566498,506.546600 374.603973,506.204498 374.641449,505.862396 
	C356.435791,502.105194 338.230103,498.347992 320.024414,494.590790 
	C319.966858,494.289154 319.909302,493.987518 319.851746,493.685852 
	C356.411163,486.867188 392.970581,480.048492 429.529999,473.229828 
	C429.514648,472.901093 429.499329,472.572357 429.483978,472.243622 
	C405.405060,467.043121 381.326111,461.842621 357.247192,456.642120 
	C357.226532,456.261383 357.205872,455.880615 357.185211,455.499878 
	C372.873016,452.263489 388.560822,449.027069 404.659424,445.698700 
z"/>
<path fill="#EF1E21" opacity="1.000000" stroke="none" 
	d="
M235.191956,122.730148 
	C234.226822,122.010773 232.971252,121.226067 231.610657,120.938591 
	C215.644257,117.565147 199.660721,114.272873 183.686401,110.936676 
	C182.240295,110.634659 180.826782,110.176491 179.365860,109.069397 
	C210.955551,102.747688 242.545242,96.425987 274.134918,90.104286 
	C274.188019,89.695366 274.241119,89.286446 274.294220,88.877533 
	C260.343384,85.315948 246.392532,81.754364 232.297363,78.155937 
	C280.256500,60.860493 357.547852,60.466415 423.318176,101.764122 
	C484.336639,140.078094 520.218506,195.280792 532.607361,266.610901 
	C530.309998,266.714386 528.841370,266.837769 527.372803,266.838318 
	C496.375153,266.849426 465.377319,266.794495 434.380188,266.922241 
	C431.036835,266.936005 429.533936,266.151978 428.474823,262.715302 
	C410.828094,205.452911 360.279755,167.947021 301.023834,167.940186 
	C241.760559,167.933350 191.165146,205.489197 173.506088,262.672272 
	C172.708008,265.256592 172.113281,266.958160 168.672180,266.940552 
	C137.511398,266.780945 106.349487,266.847076 75.022057,265.872772 
	C96.121033,262.117615 117.220016,258.362457 138.319000,254.607315 
	C138.363556,254.284607 138.408112,253.961884 138.452682,253.639175 
	C119.296593,249.654266 100.140503,245.669373 80.984413,241.684464 
	C80.987267,241.241745 80.990120,240.799026 80.992973,240.356308 
	C106.288208,234.602203 131.583435,228.848114 156.878662,223.094009 
	C156.846344,222.780212 156.814026,222.466415 156.781708,222.152634 
	C136.248962,218.094208 115.716202,214.035782 95.183449,209.977356 
	C95.184082,209.666611 95.184723,209.355881 95.185364,209.045135 
	C122.527100,203.477203 149.868835,197.909286 177.210571,192.341354 
	C177.231445,192.001419 177.252304,191.661484 177.273178,191.321548 
	C155.935043,186.671326 134.596909,182.021103 113.258766,177.370880 
	C113.275116,177.005096 113.291466,176.639313 113.307816,176.273529 
	C143.294022,169.824799 173.280212,163.376068 203.266418,156.927338 
	C203.281036,156.630966 203.295670,156.334610 203.310287,156.038239 
	C182.693787,151.942062 162.077301,147.845901 141.460800,143.749741 
	C141.395462,143.376266 141.330139,143.002808 141.264816,142.629333 
	C172.460785,136.051483 203.656754,129.473648 235.191956,122.730148 
z"/>
<path fill="#57575B" opacity="1.000000" stroke="none" 
	d="
M327.154205,260.761261 
	C345.873077,274.035645 353.355652,295.405273 346.677826,315.850677 
	C340.208435,335.657898 321.725922,349.012299 300.840515,348.970154 
	C281.138672,348.930389 263.295044,336.680542 256.240204,318.351562 
	C248.982468,299.495453 254.121918,278.465424 269.278534,265.000214 
	C283.939453,251.975388 305.406525,249.296478 322.954071,258.320221 
	C324.285187,259.004730 325.553131,259.812073 327.154205,260.761261 
M265.950775,318.393127 
	C268.754456,325.844177 273.420044,331.870331 280.295929,336.598999 
	C271.426239,320.547913 269.405579,304.209686 279.035034,288.146881 
	C288.875122,271.732666 303.920380,266.176819 323.339996,270.249390 
	C317.001526,264.876068 307.199066,262.376587 298.693909,263.471832 
	C272.602356,266.831726 257.422577,291.757996 265.950775,318.393127 
z"/>
<path fill="#F7F7F7" opacity="1.000000" stroke="none" 
	d="
M265.826416,318.019958 
	C257.422577,291.757996 272.602356,266.831726 298.693909,263.471832 
	C307.199066,262.376587 317.001526,264.876068 323.339996,270.249390 
	C303.920380,266.176819 288.875122,271.732666 279.035034,288.146881 
	C269.405579,304.209686 271.426239,320.547913 280.295929,336.598999 
	C273.420044,331.870331 268.754456,325.844177 265.826416,318.019958 
z"/>
</svg>